<svg width="590" height="684" viewBox="406 25 590 684" fill="none" xmlns="http://www.w3.org/2000/svg">
<path d="M582.437 30.5C583.273 30.4954 584.109 30.4908 584.97 30.4861C600.267 30.4528 615.894 32.3053 628.812 41.375C631 44 631 44 631.25 47.5625C629.624 52.0327 628.221 52.8524 624 55C622.316 55.6562 620.629 56.3014 618.937 56.9375C613.751 58.9205 610.881 61.6941 607.391 65.9727C603.585 69.1997 599.088 70.1869 594.375 71.6231C588.315 73.5878 583.934 75.9284 580.426 81.5C580.058 82.325 579.691 83.15 579.312 84C578.901 84.8688 578.49 85.7377 578.066 86.6328C577.282 88.3746 576.512 90.1231 575.75 91.875C573.397 94.7322 570.802 95.5355 567.418 96.9102C561.094 99.7606 556.515 103.399 554 110C554.982 109.602 554.982 109.602 555.984 109.195C561.096 107.217 565.872 105.749 571.312 105C579.874 103.689 583.842 99.3484 589.266 92.9258C591 91 591 91 593 90C594.687 89.9222 596.375 89.8624 598.062 89.8125C604.41 89.2739 608.147 86.9717 613 83C613.713 82.4251 614.426 81.8502 615.16 81.2578C618.361 78.5656 621.165 75.9022 623.687 72.5625C626 70 626 70 628.625 69.375C631 70 631 70 632.687 71.5625C635.711 77.177 636.301 82.7868 636.187 89.0625C636.187 90.0844 636.187 90.0844 636.186 91.127C636.15 95.18 635.775 99.0237 635 103C635.944 102.734 636.887 102.469 637.859 102.195C639.156 101.838 640.453 101.481 641.75 101.125C643.003 100.777 644.256 100.429 645.547 100.07C656.8 97.2677 667.627 96.6554 679.171 96.6843C681.797 96.6875 684.423 96.664 687.049 96.6387C697.418 96.6017 706.923 97.4713 717 100C716.965 98.7329 716.93 97.4657 716.895 96.1602C716.866 94.461 716.839 92.7617 716.812 91.0625C716.775 89.8163 716.775 89.8163 716.736 88.5449C716.667 82.6055 717.469 77.4225 720 72C720.66 71.34 721.32 70.68 722 70C725.655 70.1147 727.456 70.4976 730.168 73.0039C730.834 73.8483 731.501 74.6926 732.188 75.5625C737.251 81.466 742.988 88.019 750.934 89.5742C752.807 89.6886 754.682 89.7723 756.559 89.8203C760.306 90.0961 762.252 91.5141 765 94C766.304 95.7289 767.504 97.4663 768.629 99.3164C772.336 103.869 777.289 104.649 782.812 105.5C788.508 106.462 793.698 107.68 799 110C795.027 101.572 789.292 99.0647 780.906 95.793C777.26 93.5432 776.042 90.9368 774.438 87.125C771.951 81.3784 769.348 76.7849 763.641 73.7422C762.852 73.456 762.063 73.1699 761.25 72.875C759.949 72.3839 759.949 72.3839 758.621 71.8828C756.964 71.3245 755.289 70.8127 753.598 70.3672C749.107 69.1544 746.764 68.0689 743.938 64.3125C740.09 59.3477 735.107 57.2342 729.51 54.7024C724.179 52.2687 724.179 52.2687 722 49C721.312 46.1875 721.312 46.1875 722 43C730.919 34.3168 745.955 30.7263 758.039 30.6289C758.79 30.6178 759.541 30.6066 760.315 30.5951C762.752 30.5679 765.188 30.5616 767.625 30.5625C768.463 30.5618 769.301 30.561 770.164 30.5603C811.795 30.6557 850.825 43.1235 883 70C884.031 70.8276 884.031 70.8276 885.082 71.6719C901.69 85.4301 914.996 107.403 917.837 128.837C918.088 132.176 917.921 135.481 917.79 138.823C917.167 146.417 917.167 146.417 919.488 153.371C921.484 154.978 921.484 154.978 923.707 156.332C932.322 162.598 937.176 176.469 939.609 186.516C941.223 196.779 939.722 204.417 934 213C933.547 214.531 933.134 216.075 932.75 217.625C928.121 233.337 914.316 241.982 901 250C900.34 250.33 899.68 250.66 899 251C898.846 252.829 898.778 254.665 898.75 256.5C898.294 262.99 896.597 267.344 892 272C888.913 274.113 885.811 276 882 276C882.163 276.544 882.326 277.087 882.494 277.647C883.081 280.374 883.112 282.851 883.098 285.641C883.094 286.711 883.091 287.78 883.088 288.883C883.079 289.994 883.071 291.105 883.062 292.25C883.058 293.377 883.053 294.503 883.049 295.664C883.037 298.443 883.021 301.221 883 304C883.883 303.359 884.766 302.719 885.676 302.059C910.48 284.148 910.48 284.148 919 285C927.296 287.58 932.176 293.499 936.18 300.938C941.633 311.493 944.159 319.985 943 332C941.521 335.852 939.769 339.116 936 341C937.154 341.067 937.154 341.067 938.332 341.136C974.697 343.319 974.697 343.319 991 351C991.562 354.125 991.562 354.125 991 358C985.158 364.144 975.674 366.923 968 370C966.937 370.464 966.937 370.464 965.852 370.938C959.231 373.713 952.033 374.75 945 376C944.245 376.135 943.489 376.271 942.711 376.41C936.527 377.344 930.235 377.086 924 377C924 377.66 924 378.32 924 379C925.075 379.371 925.075 379.371 926.172 379.75C939.294 385.55 948.933 399.035 956 411C956.781 412.23 956.781 412.23 957.578 413.484C959.8 417.122 961.015 419.164 960.938 423.5C960 426 960 426 958 427C938.986 429.439 919.236 418.74 904.332 407.84C893.234 399.084 884.181 390.325 879 377C873.722 377.418 870.423 380.326 866.375 383.438C865.05 384.437 863.724 385.435 862.398 386.434C861.818 386.878 861.237 387.322 860.638 387.779C859.129 388.904 857.566 389.956 856 391C857.454 394.994 859.401 398.385 861.625 402C871.743 419.176 879.238 440.97 879.125 461C879.129 461.686 879.133 462.372 879.137 463.078C879.131 466.001 879.04 468.783 878.505 471.659C877.864 475.899 877.826 480.043 877.789 484.324C877.761 486.178 877.732 488.031 877.703 489.885C877.662 492.765 877.625 495.645 877.599 498.525C877.36 522.234 875.098 549.009 862.25 569.688C858.274 576.496 858.207 584.358 857.582 592.059C856.583 604.323 854.933 616.046 852 628C851.805 628.801 851.61 629.601 851.409 630.426C849.505 638.152 847.518 645.752 844.715 653.204C842.014 660.458 841.844 664.076 845 671C845.982 677.004 844.042 680.781 840.805 685.703C833.673 694.78 820.962 696.258 810.125 697.691C751.477 704.411 751.477 704.411 730.668 690.434C726.316 686.929 723.519 683.476 722 678C721.693 674.963 721.758 671.985 721.875 668.938C722.021 663.78 721.939 659.099 721 654C720.937 652.209 720.913 650.417 720.938 648.625C720.951 647.314 720.951 647.314 720.965 645.977C720.982 644.998 720.982 644.998 721 644C720.135 644.317 719.271 644.635 718.38 644.962C707.381 648.34 694.367 647.216 682.933 647.24C680.202 647.25 677.471 647.281 674.74 647.313C663.501 647.378 652.985 646.392 642 644C642.01 644.962 642.02 645.923 642.031 646.914C642.092 653.477 641.925 659.887 641.207 666.41C640.997 669.039 641.071 671.555 641.187 674.188C641.235 679.152 640.023 683.033 637 687C623.295 699.52 601.198 699.192 583.812 699.125C582.53 699.121 581.248 699.117 579.927 699.113C536.72 698.858 536.72 698.858 523.961 687.125C520.176 682.82 518.85 680.24 518.812 674.625C518.798 673.669 518.784 672.712 518.77 671.727C519 669 519 669 520.06 667.091C521.209 664.536 520.984 663.488 520.277 660.813C520.076 660.025 519.875 659.237 519.667 658.426C519.337 657.225 519.337 657.225 519 656C518.804 655.251 518.608 654.502 518.407 653.73C517.811 651.481 517.192 649.24 516.562 647C516.344 646.218 516.126 645.437 515.902 644.631C514.419 639.364 512.817 634.163 511 629C509.224 630.411 507.455 631.829 505.687 633.25C504.701 634.039 503.715 634.828 502.699 635.641C500.39 637.659 498.812 639.569 497 642C496.34 642 495.68 642 495 642C494.732 642.593 494.464 643.186 494.187 643.797C492.201 647.483 489.626 649.915 486 652C479.756 653.496 474.205 651.932 468.707 648.867C455.942 640.062 442.581 626.409 439.559 610.707C439.367 607.407 439.775 605.341 441.598 602.582C444.426 599.542 447.553 597.328 451 595.063C452.428 594.103 453.855 593.142 455.281 592.18C456.04 591.67 456.8 591.161 457.582 590.636C461.921 587.7 466.209 584.693 470.5 581.688C471.324 581.113 472.147 580.539 472.996 579.948C478.074 576.396 483.069 572.752 488 569C487.611 568.043 487.611 568.043 487.215 567.066C478.989 546.304 473.704 526.915 473.664 504.371C473.658 503.007 473.651 501.642 473.644 500.277C473.632 497.436 473.628 494.595 473.629 491.754C473.63 488.888 473.616 486.024 473.588 483.159C473.219 443.839 481.9 409.553 509.777 380.398C512.01 378.214 512.01 378.214 513 376C512.276 375.756 511.551 375.513 510.805 375.262C505.709 372.969 502.023 368.802 498 365C497.377 364.453 496.755 363.907 496.113 363.344C479.547 348.206 469.965 322.53 468.875 300.481C468.757 295.316 468.837 290.163 469 285C467.922 284.889 466.845 284.778 465.734 284.664C460.685 283.766 458.323 281.778 455 278C451.292 272.02 451.288 265.909 452 259C452.766 256.124 453.747 253.715 455 251C453.691 250.629 453.691 250.629 452.355 250.25C440.982 246.013 427.149 233.938 421.777 223.098C420.68 220.136 420.42 217.119 420 214C418.699 212.308 417.362 210.643 416 209C411.495 200.152 411.707 190.2 414.625 180.813C418.206 171.364 423.633 158.716 432.711 153.418C435.399 150.579 435.329 149.91 435.348 146.141C435.27 144.176 435.174 142.213 435.062 140.25C434.523 120.223 440.653 103.84 453 88C453.79 86.9829 454.58 85.9659 455.395 84.918C480.126 53.9947 519.208 36.4769 557.894 31.3911C566.044 30.5277 574.25 30.5168 582.437 30.5Z" fill="#080808"/>
<path d="M734 187C735.246 187.177 735.246 187.177 736.517 187.357C768.257 191.934 800.307 205.576 827 223C827.707 223.459 828.413 223.917 829.142 224.39C838.221 230.307 847.228 236.351 855.934 242.809C858.867 245.001 858.867 245.001 861.723 246.473C866.644 249.346 868.547 252.426 870.034 257.95C872.274 268.234 872.379 278.708 872.438 289.188C872.447 290.262 872.447 290.262 872.457 291.357C872.55 308.307 872.55 308.307 869 314C866.76 316.242 864.308 317.751 861.562 319.312C860.817 319.765 860.071 320.217 859.303 320.683C857.706 321.647 856.103 322.6 854.493 323.541C851.988 325.007 849.506 326.506 847.027 328.016C842.857 330.549 838.667 333.049 834.468 335.535C832.027 336.984 829.595 338.445 827.164 339.91C825.651 340.815 824.138 341.72 822.625 342.625C821.942 343.039 821.259 343.453 820.555 343.879C811.163 349.456 811.163 349.456 806.827 348.542C806.224 348.363 805.621 348.184 805 348C805.531 346.863 806.062 345.726 806.609 344.555C807.325 342.996 808.039 341.436 808.75 339.875C809.122 339.06 809.494 338.245 809.877 337.405C812.093 332.421 813.708 327.684 814.938 322.375C816.51 316.319 818.729 313.925 823.613 310.195C826.629 307.421 828.451 304.43 830.438 300.875C830.767 300.288 831.097 299.702 831.437 299.098C838.438 286.133 838.43 271.081 835 257C831.816 246.435 825.562 237.421 817.691 229.75C816 228 816 228 816 226C815.43 225.755 814.86 225.51 814.273 225.258C811.61 223.784 809.799 222.004 807.625 219.875C791.88 205.513 770.86 198.325 749.738 198.691C737.629 199.691 726.518 204.923 718.125 213.75C709.801 224.015 708.254 235.183 709 248C712.557 270.657 727.695 291.961 745.508 305.973C747.964 307.724 750.458 309.377 753 311C753.779 311.523 754.557 312.047 755.359 312.586C761.26 316.384 767.367 318.739 773.996 320.922C777 322 777 322 780 324C779.359 324.993 778.719 325.985 778.059 327.008C767.908 342.875 758.244 359.313 757.887 378.676C757.631 381.796 757.414 383.474 755.467 385.948C753.298 387.717 751.119 389.115 748.688 390.5C747.826 391.008 746.965 391.517 746.078 392.041C737.882 396.574 730.327 398.088 721.078 398.757C717.603 399.031 714.151 399.423 710.688 399.82C679.987 403.219 649.168 403.16 618.438 400.188C617.583 400.105 616.728 400.022 615.848 399.937C600.318 398.395 584.55 396.5 569.492 392.254C567.09 391.578 564.687 390.919 562.271 390.296C539.35 384.322 512.512 371.521 498.812 351.25C498.409 350.655 498.006 350.06 497.591 349.447C496.773 348.228 495.962 347.004 495.161 345.774C494.059 344.09 492.917 342.431 491.773 340.773C486.331 332.559 483.394 324.461 481 315C480.754 314.051 480.508 313.103 480.254 312.125C477.041 296.879 476.948 276.862 482 262C484.771 258.048 488.009 255.659 492 253C493.613 251.814 495.227 250.627 496.839 249.44C499.223 247.707 501.644 246.032 504.065 244.352C506.059 242.959 508.035 241.543 510.008 240.121C545.894 214.328 583.759 194.981 627.954 188.453C630.09 188.135 632.223 187.801 634.355 187.453C667.124 182.159 701.193 181.791 734 187Z" fill="#F7F7F3"/>
<path d="M718 475C720.604 476.302 720.659 477.319 721.688 480C724.002 485.389 727.174 489.587 731 494C731.539 494.634 732.078 495.268 732.633 495.922C747.345 511.887 767.321 520.852 788 526C788.98 526.248 789.959 526.495 790.969 526.75C806.981 530.063 822.885 528.973 838 523C838.929 522.689 839.859 522.379 840.816 522.059C850.506 518.677 858.371 512.414 864.758 504.469C865.373 503.742 865.373 503.742 866 503C866.33 503 866.66 503 867 503C868.471 529.179 861.635 557.678 844.025 577.715C830.604 592.435 815.233 602.387 797.438 610.938C796.375 611.45 796.375 611.45 795.29 611.974C773.559 622.399 751.549 629.857 727.627 633.447C724.919 633.86 722.225 634.304 719.527 634.774C706.881 636.913 694.503 637.599 681.688 637.562C680.69 637.563 679.693 637.563 678.666 637.563C660.713 637.517 644.421 635.374 627 631C624.91 630.522 622.819 630.05 620.727 629.582C595.085 623.704 569.158 615.525 547 601C550.517 597.143 553.668 594.908 558.438 592.812C559.529 592.324 560.621 591.835 561.746 591.332C565 590 565 590 568.254 588.945C573.938 586.989 576.17 582.805 578.75 577.688C581.865 571.736 585.813 568.151 591 564C592.234 562.901 593.463 561.797 594.688 560.688C600.018 556.034 605.625 551.724 611.214 547.388C612.879 546.094 614.538 544.794 616.195 543.492C632.765 530.577 650.226 518.903 667.938 507.625C669.109 506.875 669.109 506.875 670.304 506.109C676.345 502.29 682.488 498.569 689.375 496.5C690.121 496.255 690.868 496.01 691.637 495.758C693.278 495.231 694.928 494.728 696.582 494.242C702.745 492.191 705.261 489.923 708.484 484.328C710.979 480.496 714.438 477.812 718 475Z" fill="#F7F7F3"/>
<path d="M522.316 383.047C525.65 384.231 528.582 385.915 531.625 387.687C540.348 392.535 549.429 395.316 559 398C559.768 398.223 560.537 398.446 561.328 398.675C578.199 403.557 595.556 407.127 613.137 407.824C616 408 616 408 617.697 408.477C621.005 409.229 624.326 409.373 627.703 409.551C628.485 409.593 629.267 409.634 630.073 409.678C639.881 410.152 649.693 410.186 659.512 410.185C662.732 410.187 665.952 410.206 669.172 410.225C681.341 410.256 693.289 409.72 705.392 408.431C709.289 408.027 713.084 407.916 717 408C712.304 412.168 706.936 414.926 701.437 417.875C700.45 418.407 699.463 418.938 698.446 419.486C696.5 420.531 694.552 421.573 692.603 422.611C690.476 423.746 688.356 424.894 686.238 426.047C680.888 428.872 676.266 430.482 670.312 431.465C664.563 432.795 660.54 435.949 657.25 440.75C653.319 446.473 647.598 450.047 642 454C641.301 454.602 640.603 455.204 639.883 455.824C638 457 638 457 636 456.879C633.661 455.851 631.99 454.543 630 452.938C622.949 447.888 615.008 445.188 606.959 442.133C601.493 440.04 596.061 437.859 590.625 435.688C589.561 435.267 588.498 434.846 587.402 434.413C583.33 432.793 579.358 431.183 575.453 429.188C572.501 427.758 571.071 428.007 568 429C567.878 431.341 567.878 431.341 569 434C574.019 438.045 580.053 440.472 585.996 442.812C586.829 443.149 587.662 443.485 588.52 443.831C591.157 444.895 593.797 445.948 596.437 447C599.075 448.052 601.711 449.107 604.344 450.169C605.973 450.826 607.605 451.477 609.239 452.122C621.491 457.057 630.715 463.19 637.062 475.188C640.35 483.429 640.743 491.972 637.48 500.234C632.357 511.694 625.9 518.975 614.613 524.676C603.967 528.578 593.838 529.452 582.562 529.312C581.26 529.316 579.957 529.319 578.615 529.322C565.996 529.253 554.013 527.619 541.875 524.188C540.927 523.923 539.979 523.658 539.002 523.385C519.04 517.674 500.163 508.087 489.332 489.641C487.429 485.868 486.006 482.102 485 478C484.818 477.279 484.636 476.559 484.449 475.816C481.588 457.875 485.037 439.191 493 423C493.311 422.362 493.621 421.725 493.941 421.068C499.06 410.669 504.896 401.155 512 392C513.106 390.563 513.106 390.563 514.234 389.098C519.245 382.985 519.245 382.985 522.316 383.047Z" fill="black"/>
<path d="M619 46C616.319 48.1105 613.674 49.7309 610.625 51.25C607.314 53.0206 605.356 54.5747 603.188 57.625C599.918 61.8359 596.139 62.1735 591.102 63.2109C583.45 65.1577 577.679 69.4402 573.195 75.8594C571.967 78.0599 571.273 80.1698 570.5 82.5625C568.386 87.8301 564.084 89.2989 559.219 91.479C549.883 95.7219 546.599 102.893 542.75 111.938C541.764 115.963 541.626 119.873 542 124C543.025 125.208 543.025 125.208 545.125 125.438C548.354 124.946 548.771 124.451 551 122.25C557.276 116.478 566.045 115.194 574.25 114.125C582.356 112.886 587.494 109.091 592.438 102.688C595.327 99.1516 595.327 99.1516 598.305 98.4805C599.999 98.4092 601.695 98.3523 603.391 98.3086C611.262 97.3777 617.695 90.7765 623.188 85.5391C625 84 625 84 627 84C627.387 99.3205 627.387 99.3205 625 106C624.658 106.985 624.317 107.97 623.965 108.984C615.18 133.05 599.787 149.391 576.824 160.309C570.207 163.31 564.257 165.352 557 166C556.057 164.483 555.121 162.961 554.188 161.438C553.665 160.591 553.143 159.744 552.605 158.871C549.16 152.709 547.394 146.962 546.313 140.062C546.183 139.283 546.053 138.504 545.92 137.701C545.605 135.802 545.302 133.901 545 132C543.68 132.33 542.36 132.66 541 133C540.682 145.577 541.788 153.182 547.66 164.266C548.786 166.563 549.519 168.505 550 171C536.927 182.936 519.392 190.511 501.5 190.27C485.142 189.01 470.212 181.847 458 171C457.366 170.447 456.732 169.894 456.078 169.324C447.602 161.445 444.584 152.654 443.816 141.277C443.225 117.083 455.055 98.1398 471 81C482.425 69.2112 497.122 60.6598 512 54C512.617 53.7232 513.234 53.4463 513.87 53.1611C545.257 39.3317 586.782 31.3756 619 46Z" fill="#D43131"/>
<path d="M870.793 71.4453C889.56 86.2119 904.549 105.307 908.723 129.434C910.191 143.025 908.241 154.024 900.387 165.32C888.731 179.647 868.621 188.473 850.633 190.352C832.487 191.133 815.56 182.528 802 171C803.132 168.725 804.278 166.457 805.437 164.195C805.953 163.182 806.469 162.169 807 161.125C807.516 160.117 808.031 159.109 808.562 158.07C811.403 152.004 812.28 147.226 812.125 140.625C812.116 139.889 812.107 139.153 812.098 138.395C812.074 136.596 812.038 134.798 812 133C810.054 132.409 810.054 132.409 808 132C806.266 133.734 806.524 136.094 806.201 138.424C804.897 147.47 802.712 159.401 795.176 165.469C786.772 167.521 773.831 160.183 766.781 156.113C751.221 146.389 740.134 133.919 732.187 117.438C731.802 116.646 731.417 115.855 731.02 115.04C727.281 107.045 725.716 99.7434 725.875 90.9375C725.893 89.6265 725.911 88.3156 725.93 86.9649C725.953 85.9865 725.976 85.0081 726 84C727.167 84.875 728.333 85.75 729.5 86.625C730.227 87.169 730.954 87.713 731.703 88.2735C733.198 89.397 734.688 90.5269 736.172 91.6641C736.858 92.1874 737.543 92.7108 738.25 93.25C738.874 93.7295 739.498 94.2091 740.141 94.7031C744.032 97.4175 746.376 98.0968 751.125 97.9375C756.66 98.3001 758.762 100.259 762.375 104.375C763.146 105.352 763.917 106.329 764.711 107.336C769.41 112.805 774.392 113.7 781.187 114.938C799.191 118.489 799.191 118.489 802.52 123.109C803.008 123.733 803.497 124.357 804 125C807.626 125.334 807.626 125.334 811 125C811.745 115.126 808.1 105.753 802 98C798.348 93.9643 794.991 91.8951 789.812 90.25C786.711 89.1348 785.359 88.5997 783.648 85.7422C783.01 84.0032 782.417 82.2469 781.871 80.4766C780.615 76.9057 778.51 74.7894 776 72C776 71.34 776 70.68 776 70C775.132 69.5669 775.132 69.5669 774.246 69.125C772.84 68.4209 771.436 67.7132 770.035 67C765.285 64.5923 760.821 62.3641 755.562 61.3125C751.928 59.9736 751.492 59.6423 749.375 56.75C745.304 51.4157 739.053 49.4517 733 47C736.361 44.0738 739.605 43.0412 743.875 41.875C745.069 41.5424 746.262 41.2099 747.492 40.8672C787.506 30.9751 838.863 47.1492 870.793 71.4453Z" fill="#D43131"/>
<path d="M720 109C723.853 113.144 724.724 118.658 726 124C734.733 144.549 754.186 160.374 774.34 169.012C779.939 171.092 785.682 172.593 791.562 173.625C795.147 175.059 796.641 176.411 799.375 179.063C803.759 183.218 808.256 186.086 813.562 188.875C814.258 189.244 814.954 189.613 815.671 189.992C820.636 192.525 825.662 194.411 831 196C831.648 196.202 832.296 196.403 832.964 196.611C839.471 198.46 846.029 198.411 852.75 198.566C853.655 198.596 854.56 198.626 855.492 198.656C856.311 198.675 857.129 198.694 857.972 198.713C860 199 860 199 862 201C862.255 202.828 862.255 202.828 862.273 205.035C862.291 205.84 862.309 206.646 862.327 207.475C862.351 208.756 862.351 208.756 862.375 210.063C862.637 217.16 863.071 222.9 867 229C867.434 229.73 867.869 230.459 868.316 231.211C874.152 240.529 880.917 248.346 891 253C891.645 258.156 890.231 261.126 887.445 265.297C885.573 267.503 883.804 268.359 881 269C880 268 880 268 879.938 264.938C879.958 263.968 879.979 262.999 880 262C881.32 262 882.64 262 884 262C878.68 247.439 862.289 238.269 850 230C848.989 229.315 848.989 229.315 847.957 228.616C844.203 226.074 840.432 223.561 836.64 221.076C835.174 220.114 833.714 219.146 832.254 218.176C817.113 208.289 801.377 200.699 784.584 194.035C782.496 193.199 780.423 192.324 778.355 191.438C768.315 187.226 757.635 185.152 747 183C745.784 182.75 744.568 182.501 743.315 182.244C733.767 180.335 724.262 179.119 714.562 178.313C713.825 178.25 713.087 178.188 712.327 178.124C642.621 172.344 575.028 187.594 517 227C516.377 227.42 515.753 227.84 515.111 228.273C487.071 244.791 487.071 244.791 468.375 268.688C468.251 269.451 468.127 270.214 468 271C468.99 271 469.98 271 471 271C471 272.98 471 274.96 471 277C469.375 277.813 469.375 277.813 467 278C460.214 273.25 460.214 273.25 459 269C458.349 262.603 459.306 257.375 463 252C465.484 249.965 468.183 248.524 471 247C480.216 240.472 487.21 229.915 490 219C490.446 215.027 490.617 211.052 490.636 207.054C490.703 201.604 490.703 201.604 491.996 198.973C495.336 197.351 498.82 197.833 502.437 198C510.105 198.167 516.684 197.492 524 195C525.056 194.648 526.111 194.296 527.199 193.934C537.622 190.196 546.587 185.572 554.437 177.688C559.402 172.958 562.898 172.046 569.605 171.465C588.504 168.877 606.778 153.255 618.168 138.564C623.405 131.441 628.501 122.802 630.723 114.203C632.424 111.269 634.44 110.789 637.611 109.884C638.358 109.695 639.105 109.507 639.875 109.313C640.642 109.105 641.409 108.897 642.2 108.683C663.696 103.01 699.718 97.3913 720 109Z" fill="#EA4343"/>
<path d="M846 397C846.66 397 847.32 397 848 397C861.249 422.878 875.185 451.698 866.313 481.5C865.596 483.355 864.828 485.192 864 487C863.615 487.905 863.229 488.81 862.832 489.742C857.12 502.201 847.397 509.647 834.887 514.934C811.491 523.576 787.043 518.726 765.008 508.629C757.316 504.694 750.705 499.389 744 494C743.131 493.343 742.262 492.685 741.367 492.008C733.63 485.445 727.025 474.955 725.718 464.809C724.694 452.315 726.124 441.553 734.375 431.625C735.563 430.396 736.771 429.187 738 428C738.522 427.457 739.044 426.915 739.582 426.355C747.89 418.371 759.164 415.675 770.316 415.789C784.925 416.626 799.165 424.275 811.758 431.266C816.805 433.966 820.237 435.268 826 435C825.935 432.021 825.834 429.801 823.605 427.661C821.759 426.389 819.881 425.242 817.938 424.125C816.943 423.522 816.943 423.522 815.928 422.906C814.296 421.92 812.649 420.958 811 420C813.177 415.647 820.601 414.48 825 413C826.66 412.633 828.326 412.294 830 412C836.763 410.645 839.918 404.948 843.766 399.672C845 398 845 398 846 397Z" fill="black"/>
<path d="M638.41 207.75C644.044 212.415 647.713 217.5 651 224C651.34 224.599 651.681 225.199 652.031 225.816C656.32 234.692 655.018 248.131 652.031 257.27C651.691 258.171 651.351 259.072 651 260C650.598 261.097 650.196 262.194 649.781 263.324C644.192 277.437 635.366 288.22 625 299C624.419 299.656 623.837 300.312 623.238 300.988C614.782 310.254 602.45 316.354 591 321C590.184 321.34 589.368 321.681 588.527 322.031C576.543 326.353 562.585 324.902 551.164 319.711C538.384 313.163 531.011 304.322 525.836 291.004C520.946 273.431 524.267 257.75 533.027 242.164C545.51 222.142 567.042 206.023 590 200C590.996 199.696 590.996 199.696 592.012 199.387C607.773 195.104 625.23 198.18 638.41 207.75Z" fill="black"/>
<path d="M793.332 218.051C797.317 220.962 800.914 224.2 804.477 227.609C806.62 229.64 808.805 231.434 811.125 233.25C820.774 241.69 828.55 256.135 829.438 268.84C829.892 280.812 828.776 292.346 821 302C820.67 302 820.34 302 820 302C819.707 298.973 819.707 298.973 819.414 295.945C819.136 293.773 819.136 293.773 817 292C811.512 292.196 808.605 293.563 804.5 297.125C803.559 297.938 802.618 298.752 801.648 299.59C795.75 304.761 795.75 304.761 790.816 310.801C789.688 312.5 789.688 312.5 787 315C776.131 316.671 763.544 309.009 755 303C737.153 289.421 720.589 270.93 717 248C716.075 236.518 716.793 227.895 724.313 218.75C743.303 198.382 772.006 204.665 793.332 218.051Z" fill="black"/>
<path d="M847 588C847.98 591.159 847.992 593.588 847.582 596.859C847.464 597.802 847.346 598.745 847.225 599.716C847.021 601.218 847.021 601.218 846.813 602.75C846.604 604.301 846.604 604.301 846.392 605.884C845.185 614.453 843.36 622.672 841 631C840.578 632.531 840.158 634.062 839.738 635.594C838.891 638.675 838.034 641.753 837.168 644.828C835.924 649.249 834.741 653.686 833.578 658.129C833 660 833 660 832 661C831.646 664.188 831.798 665.671 833.5 668.438C835.369 671.63 835.532 673.353 835 677C832.911 681.177 830.192 682.548 826 684.188C801.694 692.172 761.532 694.475 737.727 683.16C735.39 681.59 733.735 680.245 732 678C731.68 674.785 731.68 674.785 731.875 671.062C732.096 664.793 731.531 659.03 730.445 652.832C729.918 649.479 729.843 646.382 730 643C734.284 641.471 738.457 640.467 742.93 639.66C750.841 638.145 758.479 635.975 766.125 633.438C766.815 633.21 767.505 632.982 768.216 632.747C796.069 623.422 827.154 610.39 847 588Z" fill="black"/>
<path d="M538.824 607.168C542.328 608.086 544.514 609.399 547.5 611.437C569.085 625.359 593.896 631.692 618.582 637.641C623.78 638.909 628.893 640.407 634 642C633.858 644.084 633.712 646.167 633.562 648.25C633.441 649.99 633.441 649.99 633.316 651.766C633 655 633 655 632.478 656.943C631.972 659.123 631.945 660.921 632.043 663.152C632.075 664.317 632.075 664.317 632.107 665.506C632.161 667.123 632.226 668.741 632.303 670.357C632.386 674.097 632.285 676.446 630.551 679.816C624.566 684.94 617.412 686.721 609.75 687.75C608.867 687.872 607.983 687.994 607.073 688.12C594.435 689.664 581.703 689.306 569 689C568.112 688.985 567.223 688.969 566.308 688.953C553.997 688.71 540.069 687.74 530 680C528 677 528 677 528.25 673.562C529 670 529 670 530.125 668.062C532.534 662.385 529.113 654.671 527.25 649.125C524.213 639.823 521.55 630.446 519 621C519.724 620.408 520.449 619.817 521.195 619.207C522.162 618.417 523.129 617.627 524.125 616.812C525.635 615.589 525.635 615.589 527.176 614.34C529.306 612.575 531.307 610.773 533.312 608.875C536 607 536 607 538.824 607.168Z" fill="#202020"/>
<path d="M545 536C547.253 536.065 549.503 536.203 551.75 536.375C552.982 536.465 554.215 536.555 555.484 536.648C559 537 559 537 561.221 537.511C564.81 538.142 568.345 538.162 571.977 538.168C572.742 538.171 573.508 538.175 574.297 538.178C575.916 538.183 577.535 538.185 579.154 538.185C581.596 538.187 584.038 538.206 586.48 538.225C594.86 538.254 602.806 538.006 611 536C607.832 539.247 604.604 542.23 601.062 545.062C594.778 550.156 588.593 555.356 582.506 560.684C581.256 561.777 579.994 562.857 578.73 563.934C573.762 568.448 571.429 573.809 569 580C561.439 576.315 554.033 572.642 547 568C546.581 570.789 546.581 570.789 547 574C550.125 577.86 553.839 580.387 558 583C554.722 585.621 551.245 587.56 547.562 589.562C540.168 593.703 533.567 598.666 527 604C526.352 604.523 525.704 605.046 525.037 605.585C521.586 608.372 518.146 611.17 514.715 613.98C511.809 616.356 508.853 618.654 505.875 620.938C501.504 624.422 497.53 628.258 493.562 632.188C492.958 632.782 492.354 633.377 491.732 633.99C488.625 637.119 486.071 640.058 484 644C477.362 643.723 473.963 641.248 469 637C467.788 636.004 467.788 636.004 466.551 634.988C459.001 628.548 451.393 620.922 449 611C449.126 607.694 449.469 606.496 451.898 604.227C453.124 603.434 453.124 603.434 454.375 602.625C455.293 602.02 456.211 601.416 457.156 600.793C459.728 599.172 462.301 597.554 464.875 595.938C477.259 588.112 489.185 579.548 500.75 570.562C501.464 570.008 502.177 569.454 502.912 568.883C509.601 563.625 516.027 558.128 522 552.062C523.145 550.904 523.145 550.904 524.312 549.723C524.869 549.154 525.426 548.586 526 548C528.773 550.452 530.247 553.102 531.938 556.375C535.517 563.715 535.517 563.715 542 568C541.161 559.611 538.388 553.18 534.461 545.871C533 543 533 543 533 541C533.782 540.723 534.565 540.446 535.371 540.16C536.383 539.798 537.395 539.436 538.438 539.062C539.447 538.703 540.456 538.343 541.496 537.973C543.903 537.231 543.903 537.231 545 536Z" fill="#51B92B"/>
<path d="M906 300C906.112 301.524 906.112 301.524 906.227 303.078C907.327 315.402 910.665 326.267 920 335C921.485 335.99 921.485 335.99 923 337C923 337.66 923 338.32 923 339C922.277 339.376 921.555 339.752 920.811 340.139C869.614 363.836 869.614 363.836 832 402C821.28 398.238 814.341 388.466 809.305 378.719C803 365.439 803 365.439 803 358C803.799 357.853 804.598 357.706 805.422 357.555C813.768 355.85 820.603 353.179 828 349C828.592 348.666 829.183 348.333 829.793 347.989C848.151 337.571 865.935 326.132 883.5 314.438C884.356 313.869 884.356 313.869 885.229 313.288C891.124 309.365 896.943 305.416 902.494 301.016C904 300 904 300 906 300Z" fill="#51B92B"/>
<path d="M775 198C804.284 207.072 829.707 223.75 854.278 241.669C857.46 243.973 860.684 245.985 864.125 247.875C870.263 252.904 870.929 261.181 871.739 268.626C872.269 275.475 872.399 282.321 872.438 289.188C872.447 290.262 872.447 290.262 872.457 291.357C872.55 308.307 872.55 308.307 869 314C866.76 316.242 864.308 317.751 861.562 319.312C860.817 319.765 860.071 320.217 859.303 320.683C857.706 321.647 856.103 322.6 854.493 323.541C851.988 325.007 849.506 326.506 847.027 328.016C842.857 330.549 838.667 333.049 834.468 335.535C832.027 336.984 829.595 338.445 827.164 339.91C825.651 340.815 824.138 341.72 822.625 342.625C821.942 343.039 821.259 343.453 820.555 343.879C811.163 349.456 811.163 349.456 806.827 348.542C806.224 348.363 805.621 348.184 805 348C805.531 346.863 806.062 345.726 806.609 344.555C807.325 342.996 808.039 341.436 808.75 339.875C809.122 339.06 809.494 338.245 809.877 337.405C812.093 332.421 813.708 327.684 814.938 322.375C816.51 316.319 818.729 313.925 823.613 310.195C826.629 307.421 828.451 304.43 830.438 300.875C830.767 300.288 831.097 299.702 831.437 299.098C838.438 286.133 838.43 271.081 835 257C831.816 246.435 825.562 237.421 817.691 229.75C816 228 816 228 816 226C815.43 225.755 814.86 225.51 814.273 225.258C811.61 223.784 809.799 222.004 807.625 219.875C798.143 211.214 787.027 206.156 775 202C775 200.68 775 199.36 775 198Z" fill="#FBFBFB"/>
<path d="M797 363C797.227 364.217 797.454 365.434 797.688 366.688C801.325 382.666 809.174 393.913 821 405C818.822 407.178 817.768 407.491 814.875 408.312C810.658 409.621 807.453 411.484 803.922 414.109C799.002 416.389 792.396 412.503 787.527 410.816C775.322 406.649 758.955 405.422 747 411C746.103 411.414 745.206 411.828 744.281 412.254C730.444 419.23 723.012 429.029 717.777 443.344C716.97 447.142 716.917 450.462 716.978 454.321C717.072 465.527 717.072 465.527 713.961 469.801C711.375 471.75 711.375 471.75 708.656 473.391C704.608 475.843 701.936 479.345 699 483C694.155 481.578 691.345 478.657 688.062 475C687.535 474.418 687.007 473.837 686.463 473.238C682.275 468.519 678.795 463.678 676 458C675.675 457.349 675.35 456.698 675.016 456.027C672.505 450.26 672.301 444.218 672 438C672.848 437.865 673.696 437.729 674.57 437.59C683.964 435.866 691.639 432.692 700 428C700.794 427.559 701.587 427.119 702.405 426.665C712.606 420.985 722.647 415.085 732.504 408.828C736.071 406.569 739.67 404.366 743.277 402.172C760.531 391.675 760.531 391.675 777 380C777.904 379.318 778.807 378.636 779.738 377.934C784.981 373.868 789.688 369.471 794.285 364.688C796 363 796 363 797 363Z" fill="#51B92B"/>
<path d="M638.41 207.75C644.044 212.415 647.713 217.5 651 224C651.34 224.599 651.681 225.199 652.031 225.816C656.32 234.692 655.018 248.131 652.031 257.27C651.691 258.171 651.351 259.072 651 260C650.598 261.097 650.196 262.194 649.781 263.324C644.192 277.437 635.366 288.22 625 299C624.419 299.656 623.837 300.312 623.238 300.988C614.782 310.254 602.45 316.354 591 321C590.184 321.34 589.368 321.681 588.527 322.031C576.543 326.353 562.585 324.902 551.164 319.711C538.384 313.163 531.011 304.322 525.836 291.004C520.946 273.431 524.267 257.75 533.027 242.164C545.51 222.142 567.042 206.023 590 200C590.996 199.696 590.996 199.696 592.012 199.387C607.773 195.104 625.23 198.18 638.41 207.75ZM558 227C556.668 228.106 555.335 229.21 554 230.312C543.471 239.649 533.19 254.517 532 269C531.92 269.907 531.84 270.815 531.758 271.75C531.169 285.039 535.728 296.044 544.621 305.773C552.778 313.481 561.796 315.732 572.729 315.594C593.623 314.67 610.332 302.317 624.25 287.687C637.753 272.318 645.614 256.197 645.32 235.527C644.879 230.672 643.502 227.133 641 223C640.443 221.948 639.886 220.896 639.312 219.812C636.061 215.858 632.438 213.497 628 211C627.135 210.509 626.27 210.018 625.379 209.512C602.708 198.349 574.89 210.922 558 227Z" fill="#090909"/>
<path d="M914 159C923.787 168.242 930.832 181.158 931.562 194.75C931.32 200.163 929.828 204.117 926 208C917.628 213.603 908.797 213.886 899.004 212.609C888.035 210.288 877.226 204.623 869 197C869 196.34 869 195.68 869 195C870.016 194.588 871.032 194.175 872.078 193.75C889.619 186.46 905.596 176.747 914 159Z" fill="#D43131"/>
<path d="M438 159C440.051 161.671 441.898 164.399 443.687 167.25C452.248 179.966 468.791 191.704 484 195C481.729 201.218 474.626 204.155 469 207C458.305 211.704 445.662 215.784 434.07 212.059C429.351 209.825 425.764 207.567 423 203C419.74 193.219 422.623 183.918 427 175C430.232 169.293 433.855 164.079 438 159Z" fill="#D43131"/>
<path d="M664 445C665.38 447.614 666.376 450.101 667.188 452.938C671.557 466.177 679.757 478.64 691 487C688.218 488.855 686.637 489.451 683.488 490.242C677.484 491.982 672.495 494.878 667.188 498.125C665.752 498.986 665.752 498.986 664.288 499.864C657.776 503.806 651.488 507.97 645.363 512.488C643 514 643 514 640 514C640.494 513.059 640.987 512.118 641.496 511.148C642.144 509.891 642.791 508.633 643.438 507.375C643.926 506.449 643.926 506.449 644.424 505.504C648.728 497.073 649.522 487.4 646.953 478.285C645.716 474.817 644.403 471.404 643 468C642.333 466.333 641.667 464.667 641 463C641.929 462.42 642.859 461.84 643.816 461.242C655.123 454.485 655.123 454.485 664 445Z" fill="#51B92B"/>
<path d="M483 498C485.511 500.489 487.992 502.991 490.402 505.578C502.037 517.84 517.209 527.708 534 531C534 531.66 534 532.32 534 533C532.783 533.227 531.566 533.454 530.312 533.688C525.129 535.015 522.702 537.716 519.527 541.977C513.851 549.572 506.991 556.785 499 562C498.01 562 497.02 562 496 562C486.829 540.122 483.513 521.676 483 498Z" fill="#F7F7F3"/>
<path d="M678.298 278.684C680.56 278.687 682.822 278.664 685.084 278.639C686.536 278.636 687.989 278.636 689.441 278.637C690.748 278.634 692.054 278.631 693.401 278.628C698.218 279.126 701.572 280.572 705 284C705.561 286.946 705.52 289.033 704.078 291.715C700.759 296.332 696.826 300.489 693 304.688C692.502 305.234 692.004 305.781 691.491 306.344C688.208 309.879 684.941 313.2 681 316C674.642 316.194 667.766 307.635 663.422 303.613C653.465 293.903 653.465 293.903 652.5 287.875C653.138 284.207 653.985 283.164 657 281C664.071 278.569 670.923 278.663 678.298 278.684Z" fill="#040404"/>
<path d="M809 303C809.66 303 810.32 303 811 303C809.16 323.583 800.362 344.284 787 360C786.452 360.764 785.904 361.529 785.34 362.316C782.08 366.056 778.273 368.849 774.312 371.812C773.528 372.41 772.744 373.007 771.936 373.623C766.148 378 766.148 378 765 378C766.634 353.487 782.378 332.794 798 315C798.876 313.987 799.753 312.974 800.629 311.961C805.194 306.759 805.194 306.759 807 305C807.66 305 808.32 305 809 305C809 304.34 809 303.68 809 303Z" fill="#51B92B"/>
<path d="M977 356C971.362 358.973 965.832 361.238 959.75 363.125C958.596 363.502 958.596 363.502 957.418 363.887C946.942 367.183 936.642 368.348 925.688 368.25C924.605 368.245 923.522 368.239 922.406 368.234C899.969 367.969 899.969 367.969 896 364C917.129 348.473 952.974 343.076 977 356Z" fill="#51B92B"/>
<path d="M886 372C901.361 375.489 913.643 379.772 926 390C927.317 391.087 927.317 391.087 928.66 392.195C937.148 399.516 944.508 407.649 949 418C943.486 417.387 938.858 415.486 933.812 413.312C932.965 412.949 932.118 412.585 931.245 412.21C911.97 403.83 896.306 392.779 886 374C886 373.34 886 372.68 886 372Z" fill="#51B92B"/>
<path d="M483 208C484.678 213.115 482.965 217.167 481 222C476.467 230.827 470.045 238.574 462.016 244.453C460 245 460 245 457.59 243.98C447.702 237.296 438.486 230.377 431 221C431.66 220.67 432.32 220.34 433 220C433.99 220.33 434.98 220.66 436 221C453.279 222.113 468.628 217.673 483 208Z" fill="#D43131"/>
<path d="M438 159C440.051 161.671 441.898 164.399 443.687 167.25C452.248 179.966 468.791 191.704 484 195C481.729 201.218 474.626 204.155 469 207C458.305 211.704 445.662 215.784 434.07 212.059C429.351 209.825 425.764 207.567 423 203C419.74 193.219 422.623 183.918 427 175C430.232 169.293 433.855 164.079 438 159Z" fill="#D43131"/>
<path d="M869 209C872.495 210.336 875.85 211.874 879.213 213.513C893.531 220.433 906.038 222.538 922 220C919.061 224.86 915.782 228.306 911.437 231.938C910.823 232.455 910.209 232.972 909.577 233.504C898.183 242.944 898.183 242.944 893 245C885.679 243.054 878.369 233.082 874.5 226.812C871.434 221.23 868.386 215.546 869 209Z" fill="#D43131"/>
<path d="M623.438 250.625C624.706 250.811 624.706 250.811 626 251C626.557 254.181 626.456 256.272 624.723 259.039C620.756 263.842 616.802 266.791 611 269C609.948 269.412 608.896 269.825 607.812 270.25C596.485 272.478 586.871 271.205 577.125 265.125C573.846 262.803 571.397 260.892 570 257C570.312 254.188 570.312 254.188 571 252C575.283 252.214 577.671 253.32 580.938 255.938C587.284 260.94 594.1 261.92 602 261C608.714 259.374 613.475 256.959 618.43 252.195C620 251 620 251 623.438 250.625Z" fill="#F7F7F3"/>
<path d="M737 249C741.694 249.142 744.464 251.677 747.938 254.527C754.369 259.119 761.402 258.543 769 258C774.792 256.883 778.577 253.852 783.102 250.23C785.771 248.501 787.911 248.537 791 249C791.43 251.937 791.477 254.137 790.016 256.781C785.389 262.708 778.413 266.668 771 268C760.097 268.912 751.229 268.649 742 262C738.57 259.043 736.255 256.675 735.562 252.125C736 250 736 250 737 249Z" fill="#F7F7F3"/>
<path d="M916 293C924.782 296.555 928.324 303.003 932.02 311.352C933.683 315.845 934.138 319.91 934.125 324.688C934.129 326.116 934.129 326.116 934.133 327.574C934 330 934 330 933 332C925.813 329.994 921.843 326.602 918.137 320.254C914.089 312.228 913 303.937 914 295C914.66 294.34 915.32 293.68 916 293Z" fill="#F7F7F3"/>
<path d="M595 198C595.33 198.66 595.66 199.32 596 200C594.927 200.247 593.855 200.495 592.75 200.75C585.332 202.601 578.072 205.104 571 208C571 206.68 571 205.36 571 204C574.244 202.795 577.496 201.614 580.75 200.437C581.67 200.095 582.591 199.753 583.539 199.4C584.429 199.081 585.318 198.762 586.234 198.434C587.051 198.135 587.868 197.837 588.71 197.529C591.245 196.943 592.6 197.028 595 198Z" fill="#D5D4D5"/>
<path d="M775 198C778.96 199.32 782.92 200.64 787 202C786.67 202.99 786.34 203.98 786 205C782.37 204.01 778.74 203.02 775 202C775 200.68 775 199.36 775 198Z" fill="#DEDEDD"/>
<path d="M581 202C581 202.66 581 203.32 581 204C577.7 205.32 574.4 206.64 571 208C571 206.68 571 205.36 571 204C574.508 202.396 577.144 201.78 581 202Z" fill="#E4E4E4"/>
<path d="M781 201C783.97 201.495 783.97 201.495 787 202C786.67 202.99 786.34 203.98 786 205C784.35 204.67 782.7 204.34 781 204C781 203.01 781 202.02 781 201Z" fill="#E4E3E3"/>
</svg>
