<?xml version="1.0" encoding="UTF-8"?>
<svg version="1.1" xmlns="http://www.w3.org/2000/svg" width="1376" height="768">
<path d="M0 0 C454.08 0 908.16 0 1376 0 C1376 253.44 1376 506.88 1376 768 C921.92 768 467.84 768 0 768 C0 514.56 0 261.12 0 0 Z " fill="#FEFEFE" transform="translate(0,0)"/>
<path d="M0 0 C14.58173822 11.00113928 24.86748545 25.48974973 28.53125 43.546875 C30.83723892 60.53432671 27.83621279 74.81682193 17.6875 88.6875 C12.82040972 94.75020159 7.07967928 98.81414433 0 102 C1.31240592 105.37738815 2.75298353 108.63752646 4.35546875 111.88671875 C13.63338506 130.86225487 21.11090569 149.41251047 26 170 C26.18079102 170.75716309 26.36158203 171.51432617 26.54785156 172.29443359 C29.760728 186.38829413 29.31215008 200.62188709 29 215 C29.85980469 214.3709375 30.71960938 213.741875 31.60546875 213.09375 C55.97685521 195.39845701 55.97685521 195.39845701 65 196 C76.87674788 200.45378046 81.88263831 210.62803123 87.171875 221.3828125 C90.09973155 228.64721129 90.7957535 238.39089936 87.9453125 245.70703125 C86.24142643 248.50483234 84.95894497 250.52052752 82 252 C82.86052979 252.03963867 83.72105957 252.07927734 84.60766602 252.12011719 C87.87956246 252.27872804 91.15004271 252.45212934 94.4206543 252.63476562 C95.82140089 252.7101278 97.22245549 252.78001574 98.6237793 252.84375 C111.15884322 253.42028187 126.35107741 254.75873264 137 262 C138.375 264.4375 138.375 264.4375 138 267 C134.36941881 271.24255416 130.56024048 273.61902078 125.625 276 C124.57324585 276.51373169 124.57324585 276.51373169 123.50024414 277.0378418 C106.77664359 285.00280133 89.38693566 288.2993152 71 289 C71.556875 289.42410156 72.11375 289.84820312 72.6875 290.28515625 C85.30646138 299.98385123 95.11518659 310.02237623 103 324 C103.63808594 324.99193359 103.63808594 324.99193359 104.2890625 326.00390625 C106.04377599 328.76728158 107.02248839 330.49401118 106.875 333.8125 C106 336 106 336 104 338 C86.57887593 341.29195154 67.05953588 330.17622124 53 321 C49.08947979 318.27053927 45.50402128 315.2326661 42 312 C41.27554687 311.35546875 40.55109375 310.7109375 39.8046875 310.046875 C32.92735186 303.61408197 27.73186379 296.04432574 25 287 C16.74024631 291.15172805 9.43340122 296.55447848 2 302 C3.45375129 305.99414496 5.40096969 309.38484316 7.625 313 C17.79776438 330.24814274 25.23976061 351.96026693 25.125 372.0625 C25.12886719 372.74376953 25.13273437 373.42503906 25.13671875 374.12695312 C25.13113413 377.03374572 25.03757115 379.79819399 24.50488281 382.65942383 C23.86590199 386.88726453 23.82587351 391.01944203 23.7890625 395.2890625 C23.76094016 397.13802887 23.73227552 398.98698705 23.703125 400.8359375 C23.66237284 403.70702391 23.62543911 406.57796665 23.59863281 409.44921875 C23.42879495 426.24559759 22.43180619 443.12741648 17.3125 459.25 C17.06338867 460.0651709 16.81427734 460.8803418 16.55761719 461.72021484 C14.55809864 467.95565148 11.94298223 473.75375202 8.71606445 479.45019531 C4.00217682 487.97997556 3.71168152 497.32910939 3.125 506.875 C1.8692273 524.49889525 -1.658462 541.37228666 -7.3984375 558.09765625 C-10.31921594 566.72827214 -11.987385 573.03784501 -9 582 C-8.2343418 588.34402507 -9.3805131 591.81034605 -13.171875 596.95703125 C-23.71603337 608.74035353 -42.56799604 608.79140532 -57.21337891 609.79052734 C-74.19502073 610.72993732 -91.42402755 611.21669475 -108 607 C-109.19625 606.7215625 -110.3925 606.443125 -111.625 606.15625 C-118.63217939 604.30890271 -124.49606912 601.89060911 -129 596 C-132.01756636 590.41473383 -132.36151778 586.02286276 -132.125 579.75 C-131.8501534 573.79625838 -131.8501534 573.79625838 -133 568 C-133.068991 565.93854893 -133.08467727 563.87498599 -133.0625 561.8125 C-133.05347656 560.72582031 -133.04445313 559.63914062 -133.03515625 558.51953125 C-133.01775391 557.27236328 -133.01775391 557.27236328 -133 556 C-133.57403564 556.06058594 -134.14807129 556.12117187 -134.73950195 556.18359375 C-148.5473786 557.5866413 -162.25541246 558.21726283 -176.125 558.25 C-177.21816025 558.25749268 -177.21816025 558.25749268 -178.33340454 558.26513672 C-189.60326722 558.32859762 -201.06032916 558.0059608 -212 555 C-211.98839844 555.97582031 -211.97679687 556.95164062 -211.96484375 557.95703125 C-211.95582031 559.22933594 -211.94679688 560.50164063 -211.9375 561.8125 C-211.92009766 563.70935547 -211.92009766 563.70935547 -211.90234375 565.64453125 C-212 569 -212 569 -213 572 C-213.01299403 573.37806032 -212.96934314 574.75717 -212.88671875 576.1328125 C-212.16903913 592.59975636 -212.16903913 592.59975636 -217.046875 598.34375 C-231.62549742 610.70642181 -255.10072353 610.3917404 -273.3125 610.25 C-274.3846022 610.24534729 -274.3846022 610.24534729 -275.47836304 610.24060059 C-315.33634872 610.03845902 -315.33634872 610.03845902 -329 599 C-333.22753278 594.71962306 -335.14708523 591.65488302 -335.1875 585.625 C-335.20167969 584.66851563 -335.21585938 583.71203125 -335.23046875 582.7265625 C-335 580 -335 580 -333.92578125 578.0234375 C-331.56506662 572.86373212 -335.25944023 565.74368592 -336.9375 560.625 C-338.8427998 554.78393493 -340.5495632 548.97085643 -342 543 C-342.495 541.515 -342.495 541.515 -343 540 C-349.78228861 545.19494447 -355.72851869 550.55062806 -361.29418945 557.01269531 C-364.98179387 561.23464452 -367.1571376 562.84642813 -372.75 563.3125 C-382.72695684 562.94502461 -388.83008519 557.3852015 -396 551 C-396.99580078 550.12988281 -396.99580078 550.12988281 -398.01171875 549.2421875 C-405.69403744 542.09504157 -413.87403391 530.55296316 -414.5 519.75 C-413.9201861 515.40139571 -412.93089087 514.17430384 -410 511 C-407.4765625 509.11328125 -407.4765625 509.11328125 -404.625 507.3125 C-400.04416311 504.34941012 -395.55327039 501.31146714 -391.125 498.125 C-390.54782227 497.71024414 -389.97064453 497.29548828 -389.37597656 496.86816406 C-388.19235737 496.0169266 -387.00909241 495.16519637 -385.82617188 494.31298828 C-383.93425583 492.952731 -382.0381406 491.59852745 -380.140625 490.24609375 C-379.5101123 489.79669434 -378.87959961 489.34729492 -378.22998047 488.88427734 C-377.02599342 488.02636922 -375.82189822 487.16861285 -374.61767578 486.31103516 C-371.71798746 484.24202678 -368.83811453 482.1528137 -366 480 C-366.26039063 479.35675781 -366.52078125 478.71351563 -366.7890625 478.05078125 C-373.38720101 461.42772907 -380.05090895 444.46010966 -380.16113281 426.32470703 C-380.17074036 425.03871613 -380.1803479 423.75272522 -380.19024658 422.42776489 C-380.19509928 421.0377826 -380.19937694 419.64779821 -380.203125 418.2578125 C-380.20736607 417.19049707 -380.20736607 417.19049707 -380.21169281 416.10161972 C-380.22663824 412.32783394 -380.23589411 408.55408585 -380.24023438 404.78027344 C-380.24460178 401.69454002 -380.25843163 398.60908892 -380.28125 395.5234375 C-380.55166248 358.22843786 -374.14180866 322.17306665 -347.11914062 294.04199219 C-345.89922908 292.83638134 -344.66939231 291.64067256 -343.42675781 290.45849609 C-341.89146686 289.03774505 -341.89146686 289.03774505 -341 287 C-341.70382812 286.77570313 -342.40765625 286.55140625 -343.1328125 286.3203125 C-346.61291843 284.71775691 -349.12752793 282.48078629 -351.875 279.875 C-352.40383789 279.3785498 -352.93267578 278.88209961 -353.47753906 278.37060547 C-361.55514275 270.70653943 -367.42752394 262.68409159 -373 253 C-373.47566406 252.18789063 -373.95132813 251.37578125 -374.44140625 250.5390625 C-391.02659468 220.07222732 -385.96653881 182.81834233 -376.91015625 150.90234375 C-373.04816541 138.35033922 -367.64027454 126.05808362 -361.6640625 114.37109375 C-359.85245469 111.32767259 -359.85245469 111.32767259 -360 109 C-361.95407356 107.7223345 -361.95407356 107.7223345 -364.4375 106.4375 C-375.5213651 99.90929132 -381.0934422 91.59361165 -386 80 C-386.38671875 79.09894531 -386.7734375 78.19789063 -387.171875 77.26953125 C-388.38722227 72.47120264 -388.33993448 67.80644797 -388.3125 62.875 C-388.30758545 61.84544189 -388.3026709 60.81588379 -388.29760742 59.75512695 C-388.0074962 40.94252974 -380.30294169 26.8616339 -367.55078125 13.41796875 C-354.3726909 0.96138415 -338.77013539 -5.14875893 -320.8125 -5.25 C-319.91724609 -5.270625 -319.02199219 -5.29125 -318.09960938 -5.3125 C-305.44051627 -5.38562112 -291.94353778 -0.47506209 -282.58984375 8.23828125 C-277.46431882 13.91791699 -273.86810013 19.95933251 -271 27 C-267.32752824 25.78774093 -263.66330794 24.55214916 -260 23.3125 C-258.97003906 22.97283203 -257.94007813 22.63316406 -256.87890625 22.28320312 C-251.4285012 20.42589949 -246.61932917 18.48713374 -241.9140625 15.13745117 C-237.26417975 12.3742109 -232.11176548 11.57046342 -226.8359375 10.74609375 C-226.16261383 10.64031509 -225.48929016 10.53453644 -224.79556274 10.42555237 C-223.37565562 10.20378998 -221.95534649 9.98458792 -220.53466797 9.76782227 C-218.4008543 9.44145443 -216.26878242 9.1051672 -214.13671875 8.76757812 C-172.65841944 2.28430873 -126.79889117 4.05058522 -89 24 C-88.85304688 23.45472656 -88.70609375 22.90945312 -88.5546875 22.34765625 C-85.08988538 10.69875259 -78.09914704 2.17403553 -67.625 -3.984375 C-46.08101392 -15.44702923 -20.19156198 -13.64769524 0 0 Z " fill="#080808" transform="translate(854,89)"/>
<path d="M0 0 C2.1296114 1.1800654 4.28199739 2.31074796 6.43847656 3.44091797 C22.21085047 11.81221867 35.31663538 22.41656061 47.93066406 35.06982422 C48.69765625 35.80201172 49.46464844 36.53419922 50.25488281 37.28857422 C67.43611124 53.87342943 78.33443023 74.44138951 87.93066406 96.06982422 C88.25550781 96.79943359 88.58035156 97.52904297 88.91503906 98.28076172 C93.46329779 108.60754588 97.27163767 119.08881049 99.93066406 130.06982422 C100.32451294 131.66842285 100.32451294 131.66842285 100.72631836 133.29931641 C102.80228128 142.52663696 103.37088351 151.32629939 103.2668457 160.77050781 C103.24289566 163.09588452 103.24636056 165.42013357 103.25292969 167.74560547 C103.24736119 169.24951846 103.24025656 170.75342673 103.23144531 172.25732422 C103.23235672 172.93972168 103.23326813 173.62211914 103.23420715 174.32519531 C103.16027215 179.3807401 102.94675382 184.84117236 99.41625977 188.74389648 C98.819021 189.1208667 98.22178223 189.49783691 97.60644531 189.88623047 C96.91905273 190.33321289 96.23166016 190.78019531 95.5234375 191.24072266 C94.77094727 191.69995117 94.01845703 192.15917969 93.24316406 192.63232422 C92.06222168 193.38497559 92.06222168 193.38497559 90.85742188 194.15283203 C88.22951188 195.81605329 85.58229664 197.44472078 82.93066406 199.06982422 C81.98175293 199.65812012 81.0328418 200.24641602 80.05517578 200.85253906 C73.38390634 204.9873305 66.67408361 209.05386688 59.93066406 213.06982422 C59.17575684 213.51970703 58.42084961 213.96958984 57.64306641 214.43310547 C42.41265716 223.46171787 42.41265716 223.46171787 37.55566406 222.69482422 C37.01941406 222.48857422 36.48316406 222.28232422 35.93066406 222.06982422 C36.4759375 220.9928125 36.4759375 220.9928125 37.03222656 219.89404297 C39.94646675 213.89369714 42.2585523 208.18038449 44.04125977 201.76464844 C46.23598409 193.92471147 47.87644149 188.89696575 54.68457031 183.94873047 C62.73793867 177.21191277 66.70733072 165.15177831 67.93066406 155.06982422 C69.2660909 137.38495734 64.95791528 122.82659553 53.42285156 109.08154297 C36.22686682 89.51123025 15.23174129 74.69796364 -11.47949219 72.83154297 C-25.28349648 72.55103379 -37.83783683 75.64988136 -48.28808594 85.06982422 C-57.54877676 94.74517284 -60.69318226 105.74291877 -60.41308594 118.89013672 C-59.18711515 140.68176743 -44.13088996 161.06338577 -28.90527344 175.61279297 C-17.44000391 185.54620141 -3.8905083 193.48405671 10.93066406 197.06982422 C8.84869095 200.75294525 6.73883987 204.40761144 4.52832031 208.01513672 C-3.26212972 220.79560779 -11.03400535 235.07470967 -11.07592773 250.49438477 C-11.20643669 257.01676907 -11.20643669 257.01676907 -13.60595703 259.94506836 C-15.77689646 261.69208253 -17.97078303 263.10995842 -20.38183594 264.50732422 C-21.24284912 265.02029053 -22.1038623 265.53325684 -22.9909668 266.06176758 C-31.19942217 270.6435605 -38.7194508 272.15612833 -48 272.82666016 C-51.44896662 273.09989996 -54.87478677 273.49184237 -58.31152344 273.89013672 C-75.0152351 275.74953366 -91.64143667 276.36220727 -108.44433594 276.38232422 C-109.84303421 276.38756607 -109.84303421 276.38756607 -111.26998901 276.39291382 C-123.53694658 276.41849451 -135.56230642 275.72221163 -147.74749756 274.32249451 C-151.08018687 273.95982001 -154.41844336 273.67339518 -157.75823975 273.38484192 C-174.0338201 271.97015195 -189.85264838 268.82051502 -205.63183594 264.63232422 C-206.67742676 264.35622314 -207.72301758 264.08012207 -208.80029297 263.7956543 C-221.52337889 260.30329909 -232.37976491 255.77998297 -243.25683594 248.25732422 C-244.76020508 247.24702148 -244.76020508 247.24702148 -246.29394531 246.21630859 C-264.60304803 233.78420181 -264.60304803 233.78420181 -270.75683594 224.81982422 C-271.21396973 224.17070068 -271.67110352 223.52157715 -272.14208984 222.8527832 C-273.47329672 220.93908527 -274.7759062 219.0091974 -276.06933594 217.06982422 C-276.75382812 216.05533203 -277.43832031 215.04083984 -278.14355469 213.99560547 C-294.57276184 187.87280971 -291.74435311 155.4909531 -285.55029297 126.65332031 C-276.35019362 87.45789223 -253.29290787 51.27003425 -223.06933594 25.06982422 C-222.15539062 24.26931641 -221.24144531 23.46880859 -220.29980469 22.64404297 C-204.02933469 8.85106767 -184.98893522 -0.42071939 -165.53198242 -8.81542969 C-163.90097444 -9.55372477 -162.29406917 -10.3479553 -160.71801758 -11.19726562 C-151.65239463 -15.90110158 -141.99586556 -16.82861759 -132.00683594 -18.18017578 C-130.21430571 -18.43650647 -128.42198538 -18.69430951 -126.62988281 -18.95361328 C-83.48355481 -25.11670065 -38.79156414 -21.65568613 0 0 Z " fill="#FDFDFD" transform="translate(769.0693359375,125.93017578125)"/>
<path d="M0 0 C2.94989427 1.47494714 3.38212094 3.66126205 4.75 6.625 C7.28980246 11.87976372 10.08716757 15.71451686 14 20 C14 20.66 14 21.32 14 22 C14.55558594 22.24363281 15.11117187 22.48726563 15.68359375 22.73828125 C18.46922966 24.25558378 20.65225667 26.12512684 23.0625 28.1875 C36.97880639 39.66202704 52.47627978 46.84550004 70 51 C70.73847168 51.17732666 71.47694336 51.35465332 72.23779297 51.53735352 C78.65445074 52.96518378 84.81188588 53.35081037 91.375 53.3125 C92.39013672 53.30686035 93.40527344 53.3012207 94.45117188 53.29541016 C101.69842036 53.17788092 108.15740916 52.51496057 115 50 C116.20785156 49.58621094 117.41570312 49.17242188 118.66015625 48.74609375 C129.95743196 44.69430422 139.14958119 38.93353536 146.7578125 29.46875 C147.37269531 28.74171875 147.37269531 28.74171875 148 28 C148.33 28 148.66 28 149 28 C150.21081817 55.54611343 143.63443989 83.36782009 124.6875 104.1875 C122.82343475 106.157799 120.92016709 108.0845016 119 110 C118.13503906 110.8765625 117.27007813 111.753125 116.37890625 112.65625 C98.8186794 129.5641653 73.61363588 139.77646181 51 148 C50.16098145 148.30921387 49.32196289 148.61842773 48.45751953 148.93701172 C32.67105074 154.65553374 16.58596648 157.60857167 0 160 C-1.21945312 160.18618896 -2.43890625 160.37237793 -3.6953125 160.56420898 C-14.8780795 162.14385971 -25.9655018 162.43798571 -37.25 162.4375 C-38.69300476 162.44009827 -38.69300476 162.44009827 -40.16516113 162.44274902 C-56.65387055 162.42976417 -71.93318611 160.86950978 -88 157 C-89.43306022 156.68377035 -90.86659659 156.36968401 -92.30078125 156.05859375 C-96.23544488 155.1474515 -100.1177473 154.10840066 -104 153 C-104.9988623 152.71753418 -105.99772461 152.43506836 -107.02685547 152.14404297 C-129.47521239 145.75666874 -149.46568932 138.12545066 -170 127 C-170 126.01 -170 125.02 -170 124 C-164.00921668 118.94786476 -156.4792198 116.60402107 -149.1015625 114.37109375 C-143.74030266 112.00106579 -141.80520892 107.84896596 -139.375 102.75 C-135.99439278 96.42936594 -131.52578903 92.45757691 -126 88 C-125.154375 87.29488281 -124.30875 86.58976563 -123.4375 85.86328125 C-120.64558239 83.54914716 -117.82522347 81.27333635 -115 79 C-113.87864698 78.08625558 -112.75756489 77.17217861 -111.63671875 76.2578125 C-97.94616468 65.13984207 -83.81488195 54.57676298 -69 45 C-67.42667303 43.97067897 -65.85379639 42.94066943 -64.28125 41.91015625 C-59.96876907 39.08692146 -55.63971777 36.2902371 -51.30615234 33.49951172 C-49.33990624 32.22101462 -47.39485101 30.9185607 -45.45703125 29.59765625 C-37.95504229 24.6438714 -30.40866415 21.82090895 -21.87109375 19.2265625 C-16.75679892 17.63760276 -14.03505093 16.57166056 -11.25 11.8125 C-8.18413213 6.95427861 -4.48435788 3.5396835 0 0 Z " fill="#FDFDFD" transform="translate(718,475)"/>
<path d="M0 0 C3.56789064 1.24876173 6.84052197 2.94292474 10.171875 4.70703125 C31.50806648 15.58000456 55.99572778 21.28582909 79.734375 23.95703125 C80.86423828 24.09093262 81.99410156 24.22483398 83.15820312 24.36279297 C103.71763384 26.70483986 124.17367187 27.22963913 144.859375 27.20703125 C146.6754425 27.20586807 146.6754425 27.20586807 148.52819824 27.2046814 C152.01629449 27.19819828 155.50415548 27.18191629 158.9921875 27.16015625 C160.54805069 27.1535775 160.54805069 27.1535775 162.13534546 27.14686584 C167.67261517 27.09364518 173.10564404 26.81166522 178.60797119 26.17817688 C181.5308286 25.87420021 184.42297219 25.86038703 187.359375 25.89453125 C188.89464844 25.90806641 188.89464844 25.90806641 190.4609375 25.921875 C191.21117187 25.93347656 191.96140625 25.94507813 192.734375 25.95703125 C189.32428412 28.80654328 185.89945922 31.13581641 182.0234375 33.3046875 C180.94320312 33.90990234 179.86296875 34.51511719 178.75 35.13867188 C177.63109375 35.75935547 176.5121875 36.38003906 175.359375 37.01953125 C174.24820313 37.64408203 173.13703125 38.26863281 171.9921875 38.91210938 C157.71441521 46.87536689 157.71441521 46.87536689 150.671875 47.89453125 C143.77197358 49.21424131 140.22687833 52.32291726 135.734375 57.58203125 C131.99115399 61.87366283 128.03405315 65.23281551 123.421875 68.51953125 C122.82310547 68.9489502 122.22433594 69.37836914 121.60742188 69.82080078 C115.77803063 73.8584247 115.77803063 73.8584247 112.734375 73.95703125 C110.9453125 72.91796875 110.9453125 72.91796875 109.109375 71.33203125 C99.98385213 63.98091561 88.5887594 60.49179704 77.734375 56.45703125 C74.75281078 55.34873133 71.77336183 54.23514952 68.796875 53.11328125 C68.08684326 52.84684814 67.37681152 52.58041504 66.64526367 52.3059082 C61.82200021 50.46326862 57.28301529 48.32570955 52.8125 45.72460938 C50.13110206 44.73420581 48.44339557 45.19689523 45.734375 45.95703125 C45.61223606 48.29851356 45.61223606 48.29851356 46.734375 50.95703125 C53.25508158 55.76522903 60.61632777 58.50401977 68.10256958 61.43304443 C107.68901007 76.96613919 107.68901007 76.96613919 115.40625 94.26953125 C118.58547386 103.0965528 117.300813 111.52486574 114.0625 120.16796875 C108.59513943 131.64942596 99.40448012 138.58255847 87.734375 142.95703125 C87.07179688 143.22104736 86.40921875 143.48506348 85.7265625 143.75708008 C78.40667501 146.3551788 71.20283744 146.3819745 63.54003906 146.29321289 C61.3700618 146.26964731 59.20132292 146.27266882 57.03125 146.27929688 C48.7625365 146.26331566 40.84995272 145.63059071 32.734375 143.95703125 C31.83348145 143.78550537 30.93258789 143.61397949 30.00439453 143.43725586 C8.28958195 139.2167912 -14.30513544 131.60648406 -28.3046875 113.2890625 C-39.07127571 97.04754964 -40.27097704 79.95197041 -36.74169922 61.14355469 C-32.71208455 42.07918673 -22.09440302 24.20089196 -10.265625 8.95703125 C-9.15960937 7.52037109 -9.15960937 7.52037109 -8.03125 6.0546875 C-3.02111782 -0.05729706 -3.02111782 -0.05729706 0 0 Z " fill="#FDFDFD" transform="translate(522.265625,383.04296875)"/>
<path d="M0 0 C0.66 0 1.32 0 2 0 C15.45000106 26.27117091 29.62485572 55.76852161 19.9375 85.9375 C13.9080673 102.02727828 4.18349181 111.04481471 -11.12890625 118.18554688 C-29.97382242 126.38839661 -53.78541452 122.62847965 -72.34594727 115.39501953 C-83.4438681 110.86912082 -92.84720087 104.66997589 -102 97 C-103.36898437 95.85917969 -103.36898437 95.85917969 -104.765625 94.6953125 C-114.01287714 86.27066868 -120.17225761 75.98133864 -120.79614258 63.3503418 C-120.87197775 51.29481243 -117.91160545 41.40006755 -110.0703125 32.03125 C-101.82971696 23.94613739 -90.88336673 18.93729193 -79.375 18.4375 C-61.03329344 19.1131425 -44.37631196 28.43156628 -28.50390625 36.85546875 C-25.52675418 38.21631985 -24.06871199 37.99281859 -21 37 C-21.28749876 33.65351447 -21.60991423 32.34254844 -24.1796875 30.0859375 C-25.06914063 29.52132813 -25.95859375 28.95671875 -26.875 28.375 C-29.88700343 26.4343214 -32.57431823 24.65057942 -35 22 C-29.63560916 18.89055221 -24.87088076 16.77267782 -18.6875 15.9375 C-13.95852736 15.26106969 -11.2492439 14.72707388 -8 11 C-6.37933792 8.70984527 -4.82683446 6.39776873 -3.33203125 4.0234375 C-2 2 -2 2 0 0 Z " fill="#FDFDFD" transform="translate(846,397)"/>
<path d="M0 0 C7.55591676 6.13349267 13.81921808 15.3470418 15.40625 25.16796875 C15.95277826 34.5955813 15.74061081 43.2258193 12.40625 52.16796875 C12.0040625 53.26625 11.601875 54.36453125 11.1875 55.49609375 C5.59306246 69.60650843 -3.22779417 80.38737468 -13.59375 91.16796875 C-14.44839844 92.13476562 -14.44839844 92.13476562 -15.3203125 93.12109375 C-27.05175157 105.99559611 -45.74577532 115.16653329 -63.05078125 116.41796875 C-77.71518711 116.89341048 -87.93953692 112.10713459 -99.78125 103.98046875 C-110.00338414 93.75833461 -114.67546038 80.76344122 -114.84375 66.54296875 C-114.77419047 47.53800012 -106.04663337 31.54986317 -92.703125 18.2890625 C-90.7237869 16.4968467 -88.68625634 14.82692498 -86.59375 13.16796875 C-85.12421875 11.97880859 -85.12421875 11.97880859 -83.625 10.765625 C-72.74449631 2.08195622 -62.18009213 -4.24624599 -48.59375 -7.83203125 C-47.91054688 -8.05761719 -47.22734375 -8.28320312 -46.5234375 -8.515625 C-31.10959328 -13.35330338 -12.90802274 -9.11726305 0 0 Z " fill="#FCFCFC" transform="translate(638.59375,207.83203125)"/>
<path d="M0 0 C2.48611283 1.94339799 4.83469927 3.98302535 7.18359375 6.08984375 C8.15941406 6.90066406 9.13523437 7.71148437 10.140625 8.546875 C20.93341356 17.69350795 31.0418949 30.73252922 33.18359375 45.08984375 C34.07265781 59.43815687 33.54526491 71.48585614 24.18359375 83.08984375 C23.85359375 83.08984375 23.52359375 83.08984375 23.18359375 83.08984375 C23.12300781 82.37957031 23.06242188 81.66929687 23 80.9375 C22.91621094 80.01839844 22.83242188 79.09929687 22.74609375 78.15234375 C22.62427734 76.77755859 22.62427734 76.77755859 22.5 75.375 C22.42314399 73.12824643 22.42314399 73.12824643 21.18359375 72.08984375 C12.95572804 71.91478278 7.92149367 77.62419245 2.19921875 82.9296875 C-0.14838377 85.2201581 -2.3493592 87.41838275 -4.2265625 90.1171875 C-7.60725762 94.87276141 -7.60725762 94.87276141 -10.9921875 95.48046875 C-29.10445307 94.44053006 -46.14028614 80.60531617 -57.9453125 67.7734375 C-72.14494204 51.71777102 -79.94382884 34.59596152 -78.81640625 13.08984375 C-77.55837822 5.02230618 -72.91452727 -1.75405298 -66.48828125 -6.703125 C-44.87413241 -20.46685186 -19.95521145 -13.53411706 0 0 Z " fill="#FCFCFC" transform="translate(795.81640625,219.91015625)"/>
<path d="M0 0 C-0.96055079 24.59010021 -7.44682268 48.06717707 -15.44555664 71.2043457 C-16.19415687 73.62880836 -16.41824102 75.49055388 -16 78 C-15.505 78.804375 -15.01 79.60875 -14.5 80.4375 C-12.63142918 83.62964183 -12.46811321 85.35277633 -13 89 C-15.51531345 93.80196204 -19.21870543 95.38184692 -24.10546875 97.15625 C-48.07602918 104.14361984 -88.08648291 106.45675854 -111 95 C-114.43123996 92.32809392 -115.86647345 91.05822912 -116.41796875 86.6875 C-116.34191406 85.470625 -116.26585937 84.25375 -116.1875 83 C-115.92641156 76.83633953 -116.41217626 71.16082096 -117.5625 65.09765625 C-118.09254421 61.34475394 -118.06538854 57.78844855 -118 54 C-117.09181519 53.85135498 -117.09181519 53.85135498 -116.1652832 53.69970703 C-91.05008645 49.45481898 -68.19333951 41.39781093 -45.375 30.3125 C-44.26345551 29.77332947 -44.26345551 29.77332947 -43.12945557 29.2232666 C-28.02686264 21.84968482 -13.94682851 13.55100982 -2.27734375 1.25 C-1 0 -1 0 0 0 Z " fill="#FCFCFC" transform="translate(848,588)"/>
<path d="M0 0 C3.34389043 1.38526051 6.28087175 3.12817 9.28515625 5.1171875 C35.18188711 21.2879228 65.5833074 27.81916532 94.84765625 35.1796875 C94.70328125 36.11425781 94.55890625 37.04882812 94.41015625 38.01171875 C93.15992138 46.68396513 92.64620689 55.02884163 93.09765625 63.79418945 C93.20981029 67.46840239 93.1129732 69.66554628 91.40234375 72.98046875 C85.55820475 78.01143245 78.47950054 79.8918326 70.97265625 80.9296875 C70.10769531 81.05182617 69.24273438 81.17396484 68.3515625 81.29980469 C59.20375317 82.41061011 50.04895923 82.4417948 40.84765625 82.4296875 C39.72982758 82.42866028 39.72982758 82.42866028 38.5894165 82.4276123 C12.75549949 82.34940742 12.75549949 82.34940742 2.34765625 78.9296875 C1.68507813 78.73761719 1.0225 78.54554688 0.33984375 78.34765625 C-4.29455653 76.87978843 -6.97320831 74.80959587 -10.15234375 71.1796875 C-10.48234375 70.8496875 -10.81234375 70.5196875 -11.15234375 70.1796875 C-11.47020281 66.68323787 -11.5487898 64.7822855 -9.58984375 61.8046875 C-7.31785487 57.65583824 -8.5489338 53.44602808 -9.72241211 49.03857422 C-10.41541318 46.78154536 -11.15058849 44.54281458 -11.90234375 42.3046875 C-14.93917826 33.00264689 -17.60193927 23.62521206 -20.15234375 14.1796875 C-17.46829405 11.79659839 -14.75173838 9.45398322 -12.02734375 7.1171875 C-11.26679687 6.44107422 -10.50625 5.76496094 -9.72265625 5.06835938 C-4.02394798 0.22937002 -4.02394798 0.22937002 0 0 Z " fill="#FDFDFD" transform="translate(539.15234375,606.8203125)"/>
<path d="M0 0 C6.48888837 1.49477012 13.08205151 1.30211794 19.7019043 1.26464844 C21.93110897 1.2540113 24.159493 1.26454511 26.38867188 1.27734375 C35.53199426 1.28494197 44.23839419 0.58104457 53.265625 -0.99609375 C50.07276212 2.22795137 46.87234215 5.23212474 43.328125 8.06640625 C37.04376685 13.16022294 30.85893798 18.35944567 24.77197266 23.68798828 C23.5214092 24.78045782 22.26009031 25.86060104 20.99609375 26.9375 C16.02745512 31.45149196 13.6950048 36.81290611 11.265625 43.00390625 C9.36604999 42.09501869 7.47111714 41.17642594 5.578125 40.25390625 C4.52238281 39.7434375 3.46664062 39.23296875 2.37890625 38.70703125 C-0.63808182 37.05658357 -3.07184771 35.16271216 -5.734375 33.00390625 C-8.91359287 31.74833738 -8.91359287 31.74833738 -11.734375 31.00390625 C-11.556226 35.54670584 -11.29791722 37.45317181 -7.984375 40.69140625 C-6.911875 41.45453125 -5.839375 42.21765625 -4.734375 43.00390625 C-3.06230019 44.33045115 -1.39468683 45.66266795 0.265625 47.00390625 C-0.6315625 47.4421875 -1.52875 47.88046875 -2.453125 48.33203125 C-18.19749582 56.24584584 -31.41869373 67.39915797 -44.95800781 78.55224609 C-46.53422545 79.84034259 -48.12912454 81.10550347 -49.7265625 82.3671875 C-55.01638902 86.56071664 -59.94014012 91.00959051 -64.734375 95.75390625 C-65.28697998 96.29724609 -65.83958496 96.84058594 -66.40893555 97.40039062 C-69.37704582 100.39195877 -71.73223353 103.249891 -73.734375 107.00390625 C-83.10323113 107.00390625 -90.02386688 99.81014688 -96.484375 93.69140625 C-101.90484473 88.03695941 -107.40579253 81.43008562 -108.984375 73.56640625 C-108.734375 70.00390625 -108.734375 70.00390625 -106.80859375 68.1640625 C-102.71052874 65.28448188 -98.51743935 62.57467273 -94.296875 59.87890625 C-82.76492309 52.44581116 -71.65838745 44.56263983 -60.7265625 36.26953125 C-58.68195034 34.7213915 -56.62392499 33.19084949 -54.5546875 31.67578125 C-47.75582942 26.64965036 -41.70518007 21.2486711 -35.87133789 15.11816406 C-34.52549161 13.71420698 -33.13371367 12.35455386 -31.734375 11.00390625 C-31.074375 11.00390625 -30.414375 11.00390625 -29.734375 11.00390625 C-29.28707031 11.95652344 -28.83976563 12.90914062 -28.37890625 13.890625 C-27.7687772 15.1578161 -27.15806915 16.42472853 -26.546875 17.69140625 C-26.25490234 18.31724609 -25.96292969 18.94308594 -25.66210938 19.58789062 C-23.34567506 24.34529874 -20.62742661 28.55738044 -15.734375 31.00390625 C-16.52950512 23.19864939 -18.90753093 16.87243229 -22.43383789 9.95678711 C-23.2519329 8.33061284 -23.99955138 6.66936608 -24.734375 5.00390625 C-23.734375 3.00390625 -23.734375 3.00390625 -21.51953125 2.1875 C-20.62105469 1.94128906 -19.72257813 1.69507813 -18.796875 1.44140625 C-6.94013173 -1.85118577 -6.94013173 -1.85118577 0 0 Z " fill="#FBFBFB" transform="translate(557.734375,536.99609375)"/>
<path d="M0 0 C14.42251384 7.65276245 24.29213041 19.82490271 29.375 35.25 C32.47220442 47.51709347 32.47107986 58.87096593 26.83984375 70.3984375 C22.51437261 77.59275295 16.1662504 85.65512566 7.9375 88.5625 C5.44262141 88.24631425 4.24333058 87.87385611 2.46459961 86.06298828 C2.01093018 85.42603027 1.55726074 84.78907227 1.08984375 84.1328125 C0.57188232 83.42455322 0.0539209 82.71629395 -0.47973633 81.98657227 C-1.02267334 81.22787842 -1.56561035 80.46918457 -2.125 79.6875 C-7.00931864 73.04697483 -12.09480475 67.18994706 -18.11328125 61.56640625 C-20.0625 59.5625 -20.0625 59.5625 -20.0625 57.5625 C-20.62582031 57.32273438 -21.18914063 57.08296875 -21.76953125 56.8359375 C-24.54509148 55.29448497 -26.47010959 53.3993874 -28.75 51.1875 C-40.71637248 39.9930184 -54.86553707 31.59382321 -69.0625 23.5625 C-67.75017897 15.04732605 -62.03524926 8.85948066 -55.640625 3.421875 C-39.0299706 -8.55793029 -18.19493956 -8.54048184 0 0 Z " fill="#FCFCFC" transform="translate(842.0625,93.4375)"/>
<path d="M0 0 C1.20849609 0.10634766 1.20849609 0.10634766 2.44140625 0.21484375 C13.00770922 1.7243156 22.64047455 7.34104923 29.34375 15.578125 C32.02820661 19.50350966 34.10857779 23.64427288 36 28 C35.20078125 28.4846875 34.4015625 28.969375 33.578125 29.46875 C30.04059565 31.62780547 26.51691186 33.80758932 23 36 C21.99582031 36.62390625 20.99164062 37.2478125 19.95703125 37.890625 C11.65190138 43.2256342 4.34303171 49.44270125 -3 56 C-3.57459961 56.50611816 -4.14919922 57.01223633 -4.74121094 57.53369141 C-17.5390599 68.82355987 -27.55635168 81.83452752 -37 96 C-44.73242474 94.21559429 -50.82683942 89.09234195 -55.3125 82.6875 C-56.23612437 81.14126533 -57.13293184 79.57864385 -58 78 C-58.41378906 77.32066406 -58.82757813 76.64132813 -59.25390625 75.94140625 C-64.60060474 65.49019422 -63.58882369 50.4218081 -60.0625 39.5 C-53.3738456 23.6614167 -41.65396069 11.21053559 -26 4 C-17.45785586 0.96079503 -9.09855789 -0.88321903 0 0 Z " fill="#FCFCFC" transform="translate(538,93)"/>
<path d="M0 0 C0.06316406 0.99257813 0.12632812 1.98515625 0.19140625 3.0078125 C1.17837909 14.97152381 3.93456077 26.0636314 13.4375 34.25 C14.11683594 34.75015625 14.79617188 35.2503125 15.49609375 35.765625 C15.99238281 36.17296875 16.48867188 36.5803125 17 37 C17 37.66 17 38.32 17 39 C16.26700684 39.3810791 15.53401367 39.7621582 14.77880859 40.15478516 C-1.6541066 48.73394085 -17.5313229 57.75234244 -33 68 C-34.176484 68.76784616 -35.35349131 69.5348917 -36.53125 70.30078125 C-58.3877433 83.27629188 -58.3877433 83.27629188 -74 102 C-84.2365926 98.48458653 -91.20084665 89.32896646 -96 80 C-97.8406014 75.72158079 -99.4458409 71.38889874 -101 67 C-101.37511719 66.13117188 -101.75023437 65.26234375 -102.13671875 64.3671875 C-103 62 -103 62 -103 58 C-102.319375 57.87625 -101.63875 57.7525 -100.9375 57.625 C-91.43343741 55.60285902 -83.46677104 51.59453754 -75 47 C-73.37191406 46.12214844 -73.37191406 46.12214844 -71.7109375 45.2265625 C-54.81270203 35.81124395 -38.59473924 25.15366347 -22.5 14.4375 C-21.9296402 14.0584552 -21.3592804 13.6794104 -20.77163696 13.28887939 C-14.87659493 9.36553642 -9.05746477 5.41629812 -3.50585938 1.01586914 C-2 0 -2 0 0 0 Z " fill="#FCFCFC" transform="translate(906,300)"/>
<path d="M0 0 C0.33 0 0.66 0 1 0 C1.12375 0.680625 1.2475 1.36125 1.375 2.0625 C4.11028688 14.91834832 9.64737599 26.49545447 18.921875 35.88671875 C21.13212094 38.13435607 23.0661646 40.51301798 25 43 C24.13117188 43.31453125 23.26234375 43.6290625 22.3671875 43.953125 C15.09012001 46.49181215 15.09012001 46.49181215 8.5 50.375 C6 52 6 52 3.79296875 51.75390625 C0.40605506 50.8396764 -2.87543823 49.71914748 -6.1875 48.5625 C-22.43583074 43.05976349 -35.94989635 42.15770194 -51.94921875 49.3203125 C-65.64392122 56.31091376 -73.02881966 66.13951959 -78.22265625 80.34375 C-79.03027672 84.14240709 -79.08345919 87.46171259 -79.02197266 91.32128906 C-78.92785686 102.52734361 -78.92785686 102.52734361 -82.0390625 106.80078125 C-84.625 108.75 -84.625 108.75 -87.34375 110.390625 C-91.3920238 112.84340265 -94.06429916 116.34495524 -97 120 C-101.84531641 118.57752179 -104.65464573 115.65672474 -107.9375 112 C-108.46529053 111.41839111 -108.99308105 110.83678223 -109.53686523 110.23754883 C-113.72475718 105.5191345 -117.20539631 100.67776876 -120 95 C-120.32484375 94.34902344 -120.6496875 93.69804687 -120.984375 93.02734375 C-123.49481776 87.26043042 -123.69946395 81.21798722 -124 75 C-122.7625 74.938125 -121.525 74.87625 -120.25 74.8125 C-109.81180009 73.63091284 -100.47352161 67.81104642 -91.625 62.5 C-90.59479736 61.88979004 -89.56459473 61.27958008 -88.50317383 60.65087891 C-86.37386434 59.38907793 -84.24633661 58.12426536 -82.12060547 56.85644531 C-79.16229073 55.09654661 -76.19490467 53.35342614 -73.22265625 51.6171875 C-61.32243715 44.65621032 -49.57991576 37.48212567 -38 30 C-37.31824707 29.56059082 -36.63649414 29.12118164 -35.93408203 28.66845703 C-23.63773552 20.71093409 -11.97544232 12.47425405 -1.828125 1.8359375 C-1.22484375 1.23007812 -0.6215625 0.62421875 0 0 Z " fill="#FAFAFA" transform="translate(796,363)"/>
<path d="M0 0 C7.55591676 6.13349267 13.81921808 15.3470418 15.40625 25.16796875 C15.95277826 34.5955813 15.74061081 43.2258193 12.40625 52.16796875 C12.0040625 53.26625 11.601875 54.36453125 11.1875 55.49609375 C5.59306246 69.60650843 -3.22779417 80.38737468 -13.59375 91.16796875 C-14.44839844 92.13476562 -14.44839844 92.13476562 -15.3203125 93.12109375 C-27.05175157 105.99559611 -45.74577532 115.16653329 -63.05078125 116.41796875 C-77.71518711 116.89341048 -87.93953692 112.10713459 -99.78125 103.98046875 C-110.00338414 93.75833461 -114.67546038 80.76344122 -114.84375 66.54296875 C-114.77419047 47.53800012 -106.04663337 31.54986317 -92.703125 18.2890625 C-90.7237869 16.4968467 -88.68625634 14.82692498 -86.59375 13.16796875 C-85.12421875 11.97880859 -85.12421875 11.97880859 -83.625 10.765625 C-72.74449631 2.08195622 -62.18009213 -4.24624599 -48.59375 -7.83203125 C-47.91054688 -8.05761719 -47.22734375 -8.28320312 -46.5234375 -8.515625 C-31.10959328 -13.35330338 -12.90802274 -9.11726305 0 0 Z M-80.59375 19.16796875 C-81.48835937 19.88726562 -82.38296875 20.6065625 -83.3046875 21.34765625 C-94.51761207 30.76651289 -104.68712345 45.31776478 -106.59375 60.16796875 C-107.43518379 73.36236663 -104.5799245 84.81617684 -96.296875 95.31640625 C-89.66199316 102.52955761 -81.6672647 106.716646 -71.9140625 107.44140625 C-50.86103643 108.16112481 -34.91034766 99.10868178 -19.4765625 85.26953125 C-5.07478562 71.5618159 5.91312936 54.39452472 6.73339844 34.23193359 C6.89424475 27.08412039 6.21332948 21.34448931 2.40625 15.16796875 C1.87 14.13671875 1.33375 13.10546875 0.78125 12.04296875 C-5.82554813 4.04526575 -15.58328434 -1.09760151 -25.875 -2.17578125 C-47.64107234 -2.76405348 -64.36454942 5.50803475 -80.59375 19.16796875 Z " fill="#0A0A0A" transform="translate(638.59375,207.83203125)"/>
<path d="M0 0 C1.56164778 2.95206226 2.68780143 5.89919813 3.75 9.0625 C8.46752832 22.0745836 15.95645578 33.50496598 27 42 C27 42.33 27 42.66 27 43 C26.25878906 43.17273438 25.51757812 43.34546875 24.75390625 43.5234375 C14.38288073 46.29073684 6.01102374 51.31180436 -3 57 C-3.67369629 57.42071777 -4.34739258 57.84143555 -5.04150391 58.27490234 C-10.89880473 61.93734198 -16.66370675 65.59261705 -22 70 C-22.66 69.67 -23.32 69.34 -24 69 C-23.50628906 68.04738281 -23.01257813 67.09476563 -22.50390625 66.11328125 C-21.85644963 64.84651829 -21.20933206 63.57958199 -20.5625 62.3125 C-20.07426758 61.37374023 -20.07426758 61.37374023 -19.57617188 60.41601562 C-14.76968954 50.95170505 -14.55077585 40.57150702 -17.8125 30.5 C-18.88586131 27.50610332 -19.98254043 25.02729312 -21.69921875 22.34375 C-22.12847656 21.5703125 -22.55773437 20.796875 -23 20 C-21.6774128 16.03223839 -20.14102997 15.74794649 -16.5 13.8125 C-10.57860324 10.48746239 -3.15356588 6.30713176 0 0 Z " fill="#FBFBFB" transform="translate(664,445)"/>
<path d="M0 0 C2.51141476 2.48903138 4.99163452 4.99102242 7.40234375 7.578125 C18.8433534 19.63613825 33.64165567 29.19573388 50 33 C50 33.66 50 34.32 50 35 C48.948125 35.226875 47.89625 35.45375 46.8125 35.6875 C41.33588362 37.28209714 38.61427364 41.11841414 35.4375 45.625 C30.41988033 52.50293819 23.14253082 59.38647687 16 64 C15.01 64 14.02 64 13 64 C7.42120545 50.80437525 2.60225374 38.28551464 1 24 C0.87238281 22.91460938 0.74476563 21.82921875 0.61328125 20.7109375 C-0.07322113 13.81025122 -0.11057382 6.92929242 0 0 Z " fill="#FAFAFA" transform="translate(483,498)"/>
<path d="M0 0 C1.28326172 -0.01611328 2.56652344 -0.03222656 3.88867188 -0.04882812 C5.12810547 -0.04947266 6.36753906 -0.05011719 7.64453125 -0.05078125 C9.3147937 -0.05525269 9.3147937 -0.05525269 11.01879883 -0.05981445 C15.58998374 0.47728833 18.93473043 2.05973043 22.1875 5.3125 C21.87188401 13.51851586 17.27584412 18.49529452 11.875 24.25 C11.3907959 24.76780029 10.9065918 25.28560059 10.40771484 25.8190918 C9.44444843 26.84635144 8.47933292 27.87188089 7.51220703 28.89550781 C6.3507409 30.13788699 5.2177956 31.40680329 4.08984375 32.6796875 C3.50332031 33.32164062 2.91679688 33.96359375 2.3125 34.625 C1.82007813 35.17800781 1.32765625 35.73101562 0.8203125 36.30078125 C-0.8125 37.3125 -0.8125 37.3125 -3.18359375 37.2265625 C-13.10578009 33.77664927 -25.00353104 21.55355947 -29.8125 12.3125 C-30.30582971 8.85919203 -30.26345732 7.08556969 -28.5 4.0625 C-20.55580954 -1.11046123 -9.10064917 -0.0232041 0 0 Z " fill="#040404" transform="translate(682.8125,278.6875)"/>
<path d="M0 0 C0.66 0 1.32 0 2 0 C1.71190255 1.66728734 1.41930221 3.3337967 1.125 5 C0.96257813 5.928125 0.80015625 6.85625 0.6328125 7.8125 C-4.92806176 35.82282962 -18.47883727 57.18636289 -41.46875 73.98120117 C-43 75 -43 75 -44 75 C-43.09360035 50.07400966 -25.89573347 28.1211704 -9.54296875 10.75390625 C-7.69812385 8.75603274 -5.99470794 6.76897736 -4.30078125 4.65234375 C-3.54152344 3.77707031 -2.78226563 2.90179688 -2 2 C-1.34 2 -0.68 2 0 2 C0 1.34 0 0.68 0 0 Z " fill="#F8F7F7" transform="translate(809,303)"/>
<path d="M0 0 C-22.09673193 12.17575025 -46.10299469 13.54411344 -70.6875 11.125 C-71.49550049 11.04677002 -72.30350098 10.96854004 -73.13598633 10.88793945 C-78.74822369 10.25177631 -78.74822369 10.25177631 -81 8 C-59.69161746 -6.70424343 -23.74388773 -13.94482295 0 0 Z " fill="#F6F6F6" transform="translate(977,356)"/>
<path d="M0 0 C24.16280729 5.56630116 44.85149463 16.83810621 58.94921875 37.9140625 C60.36017065 40.24920434 61.71574288 42.59332304 63 45 C59.52038114 46.22667105 57.74570552 45.79827477 54.40234375 44.33984375 C53.52392822 43.96166504 52.6455127 43.58348633 51.74047852 43.19384766 C50.81549561 42.77925293 49.8905127 42.3646582 48.9375 41.9375 C47.98738037 41.51774902 47.03726074 41.09799805 46.05834961 40.66552734 C27.00441783 32.16044556 9.790696 21.20482677 0 2 C0 1.34 0 0.68 0 0 Z " fill="#F7F7F7" transform="translate(886,372)"/>
<path d="M0 0 C0.55674569 3.18140397 0.45588289 5.27226034 -1.27734375 8.0390625 C-5.24755807 12.8465329 -9.23563403 15.71685897 -15 18 C-15.73863281 18.35320312 -16.47726562 18.70640625 -17.23828125 19.0703125 C-25.63715919 21.89765755 -35.88140315 21.12076317 -43.75 17.25 C-54.4200627 11.2137931 -54.4200627 11.2137931 -56 6 C-55.625 3.25 -55.625 3.25 -55 1 C-50.70048253 1.56284592 -47.95328482 3.09476172 -44.375 5.5 C-37.21267591 10.2879646 -31.53500242 10.69097511 -23 10 C-16.62070262 8.4601696 -12.31447689 5.64705891 -7.60546875 1.1953125 C-5.1272958 -0.64975057 -2.95777599 -0.43284527 0 0 Z " fill="#080909" transform="translate(626,251)"/>
<path d="M0 0 C4.69394625 0.1422408 7.46422639 2.67729867 10.9375 5.52734375 C17.53948142 10.24125852 25.25042815 9.7868796 33 9 C37.94497318 7.39846675 41.78914485 5.0182191 45.75 1.6875 C48.63225661 -0.47419246 50.48329313 -0.32713552 54 0 C54.42335178 2.89290385 54.46549393 5.11078723 53.0859375 7.74609375 C48.37455424 13.93150628 41.47341748 18.23074379 33.73828125 19.31787109 C24.90999825 20.02335184 15.48060241 20.33208557 8 15 C6.87658203 14.21882813 6.87658203 14.21882813 5.73046875 13.421875 C2.25850391 10.72213351 -0.33613698 8.60270621 -1.0625 4.125 C-1 1 -1 1 0 0 Z " fill="#080808" transform="translate(737,249)"/>
<path d="M0 0 C5.63175034 1.77295844 8.65958891 6.21056267 11.63671875 11.16015625 C14.84350075 17.34721892 16.6437712 22.89271104 16.5 29.9375 C16.48195313 31.08992188 16.46390625 32.24234375 16.4453125 33.4296875 C16.42210937 34.29851562 16.39890625 35.16734375 16.375 36.0625 C11.92244943 37.27475264 11.92244943 37.27475264 9.53125 36.34765625 C2.44895119 31.11944982 -1.99975927 23.73898199 -3.625 15.0625 C-3.90066445 10.38121646 -3.95923512 5.74179172 -3.625 1.0625 C-2.625 0.0625 -2.625 0.0625 0 0 Z " fill="#F5F5F5" transform="translate(917.625,293.9375)"/>
<path d="M0 0 C2 3 2 3 2 5 C0 6.625 0 6.625 -2 8 C-2.66 7.67 -3.32 7.34 -4 7 C-2.68 4.69 -1.36 2.38 0 0 Z " fill="#C7C6C6" transform="translate(644,507)"/>
</svg>
